Coordinates
version=1
nRows=12
nColumns=23
inDegrees=yes

Units are S.I. units (second, meters, Newtons, ...)
If the header above contains a line with 'inDegrees', this indicates whether rotational values are in degrees (yes) or radians (no).

endheader
time	pelvis_tilt	pelvis_list	pelvis_rotation	pelvis_tx	pelvis_ty	pelvis_tz	hip_flexion_r	hip_adduction_r	hip_rotation_r	knee_angle_r	knee_angle_r_beta	ankle_angle_r	subtalar_angle_r	mtp_angle_r	hip_flexion_l	hip_adduction_l	hip_rotation_l	knee_angle_l	knee_angle_l_beta	ankle_angle_l	subtalar_angle_l	mtp_angle_l
     22.50000000	     -6.72206248	      9.30282045	      3.07570222	      2.13130584	      0.96578332	      0.99578694	      8.85151070	     -7.55543802	      2.80301583	     83.29378031	      1.45375071	     -6.24049236	    -16.12587007	      0.00000000	     32.90347787	     12.02654557	     -1.91125041	     42.15542849	      0.73575102	     12.98110681	     -0.54227920	      0.00000000
     22.50666667	     -6.90735172	      9.78331974	      3.33988630	      2.12899953	      0.96180163	      0.99570688	     10.82208894	     -7.81499113	      3.56336391	     86.34504000	      1.50700524	     -5.69177515	    -16.32009334	      0.00000000	     32.92662917	     12.61559300	     -1.88054234	     43.68089882	      0.76237550	     14.60549697	     -0.44966412	      0.00000000
     22.51333333	     -7.13241115	     10.25969925	      3.57421790	      2.12670575	      0.95830430	      0.99562426	     12.88113369	     -8.07215124	      4.36954087	     89.20886664	      1.55698844	     -5.15897546	    -16.54550220	      0.00000000	     32.82342308	     13.18618476	     -1.85469787	     44.90534537	      0.78374613	     16.14370756	     -0.27953515	      0.00000000
     22.52000000	     -7.42141573	     10.72224042	      3.74469938	      2.12442963	      0.95524419	      0.99554315	     15.06354351	     -8.30963408	      5.25740882	     91.87852349	      1.60358275	     -4.65517113	    -16.78977924	      0.00000000	     32.64181733	     13.70924980	     -1.86942814	     45.86101982	      0.80042579	     17.55775315	     -0.12024367	      0.00000000
     22.52666667	     -7.78100197	     11.18443962	      3.84477946	      2.12224034	      0.95264738	      0.99547431	     17.36613172	     -8.53400252	      6.23721303	     94.32918579	      1.64635487	     -4.15598287	    -17.08047485	      0.00000000	     32.38277422	     14.18928235	     -1.95587037	     46.53913766	      0.81226118	     18.87389977	      0.16232047	      0.00000000
     22.53333333	     -8.18741986	     11.61407136	      3.88516740	      2.12014501	      0.95049528	      0.99537236	     19.75208429	     -8.71551513	      7.26861038	     96.54595580	      1.68504481	     -3.67050516	    -17.38914500	      0.00000000	     32.04735034	     14.60469442	     -2.08281626	     46.98870883	      0.82010768	     20.06795509	      0.46279984	      0.00000000
     22.54000000	     -8.67078555	     12.00950073	      3.87898055	      2.11815516	      0.94870002	      0.99524912	     22.24511658	     -8.85535650	      8.33295428	     98.52613122	      1.71960539	     -3.15453781	    -17.68821726	      0.00000000	     31.68513690	     14.96365995	     -2.23502445	     47.24328476	      0.82455087	     21.15180729	      0.76368229	      0.00000000
     22.54666667	     -9.13365574	     12.36664651	      3.84360518	      2.11635278	      0.94746519	      0.99507726	     24.70418978	     -8.94448140	      9.38056616	    100.21978257	      1.74916518	     -2.63153087	    -18.00975562	      0.00000000	     31.16596336	     15.27797152	     -2.37368243	     47.26378534	      0.82490867	     22.14295025	      1.10230907	      0.00000000
     22.55333333	     -9.71554585	     12.66126348	      3.80581726	      2.11465650	      0.94650473	      0.99485742	     27.29347917	     -8.98322973	     10.38317885	    101.65998782	      1.77430151	     -2.06306710	    -18.26357645	      0.00000000	     30.67508364	     15.55297933	     -2.44715956	     47.11302601	      0.82227742	     23.05540597	      1.37609079	      0.00000000
     22.56000000	     -9.63448698	     12.51745156	      3.93602753	      2.11373861	      0.94744135	      0.99451518	     28.86280073	     -8.65194690	     10.75652745	    102.49968469	      1.78895698	     -1.61368162	    -18.61282791	      0.00000000	     29.22046673	     15.54568980	     -1.91595559	     46.68662210	      0.81483527	     23.65467830	      1.65429540	      0.00000000
     22.56666667	    -10.53742392	     13.06007037	      3.67123443	      2.11209230	      0.94657285	      0.99458298	     31.89891312	     -8.85261233	     12.07594772	    103.58920399	      1.80797268	     -0.88014310	    -18.96242525	      0.00000000	     28.95198703	     15.89670457	     -2.44022359	     46.19749158	      0.80629833	     24.52918872	      2.15723861	      0.00000000
     22.57333333	    -10.62259471	     12.82497733	      3.76146034	      2.11147859	      0.94812844	      0.99435243	     33.57806157	     -8.46682251	     12.30938086	    103.91699784	      1.81369376	     -0.37769257	    -19.26151483	      0.00000000	     27.50055773	     15.75600363	     -1.93611713	     45.44512237	      0.79316701	     24.99980426	      2.45483479	      0.00000000
